# AST/ASF file generated using VICON BodyLanguage
# -----------------------------------------------
:version 1.10
:name VICON
:units
  mass 1.0
  length 0.45
  angle deg
:documentation
   .ast/.asf automatically generated from VICON data using
   VICON BodyBuilder and BodyLanguage model FoxedUp or BRILLIANT.MOD
:root
   order TX TY TZ RX RY RZ
   axis XYZ
   position 0 0 0  
   orientation 0 0 0 
:bonedata
  begin
     id 1 
     name lhipjoint
     direction 0.645422 -0.672597 0.361999 
     length 2.39934 
     axis 0 0 0  XYZ
  end
  begin
     id 2 
     name lfemur
     direction 0.34202 -0.939693 0  
     length 6.58112  
     axis 0 0 20  XYZ
    dof rx ry rz
    limits (-160.0 20.0)
           (-70.0 70.0)
           (-60.0 70.0)
  end
  begin
     id 3 
     name ltibia
     direction 0.34202 -0.939693 0   
     length 7.02673   
     axis 0 0 20   XYZ
    dof rx
    limits (-10.0 170.0)
  end
  begin
     id 4 
     name lfoot
     direction 0.0835106 -0.229444 0.969733   
     length 2.08772   
     axis -90 7.62852e-016 20   XYZ
    dof rx rz
    limits (-45.0 90.0)
           (-70.0 20.0)
  end
  begin
     id 5 
     name ltoes
     direction 1.5358e-011 -4.21925e-011 1   
     length 1.04844   
     axis -90 7.62852e-016 20   XYZ
    dof rx
    limits (-90.0 20.0)
  end
  begin
     id 6 
     name rhipjoint
     direction -0.644959 -0.672941 0.362185   
     length 2.39812  
     axis 0 0 0  XYZ 
  end
  begin
     id 7 
     name rfemur
     direction -0.34202 -0.939693 0   
     length 6.67015   
     axis 0 0 -20   XYZ
    dof rx ry rz
    limits (-160.0 20.0)
           (-70.0 70.0)
           (-70.0 60.0)
  end
  begin
     id 8 
     name rtibia
     direction -0.34202 -0.939693 0   
     length 7.35735   
     axis 0 0 -20   XYZ
    dof rx
    limits (-10.0 170.0)
 end
 begin
     id 9 
     name rfoot
     direction -0.0670769 -0.184292 0.98058   
     length 2.25469  
     axis -90 -7.62852e-016 -20   XYZ
    dof rx rz
    limits (-45.0 90.0)
           (-20.0 70.0)
  end
  begin
     id 10 
     name rtoes
     direction -1.53575e-011 -4.21908e-011 1   
     length 1.13399   
     axis -90 -7.62852e-016 -20   XYZ
    dof rx
    limits (-90.0 20.0)
  end
  begin
     id 11 
     name lowerback
     direction -0.0188328 0.993434 -0.112847   
     length 2.27656   
     axis 0 0 0   XYZ
    dof rx ry rz
    limits (-20.0 45.0)
           (-30.0 30.0)
           (-30.0 30.0)
  end
  begin
     id 12 
     name upperback
     direction 0.00983139 0.998968 -0.04435   
     length 2.28631   
     axis 0 0 0   XYZ
    dof rx ry rz
    limits (-20.0 45.0)
           (-30.0 30.0)
           (-30.0 30.0)
  end
  begin
     id 13 
     name thorax
     direction 0.0177718 0.999807 0.00833073   
     length 2.30999   
     axis 0 0 0   XYZ
    dof rx ry rz
    limits (-20.0 45.0)
           (-30.0 30.0)
           (-30.0 30.0)
  end
  begin
     id 14 
     name lowerneck
     direction -0.0835025 0.993181 0.0813558   
     length 1.39447   
     axis 0 0 0   XYZ
    dof rx ry rz
    limits (-20.0 45.0)
           (-30.0 30.0)
           (-30.0 30.0)
  end
  begin
     id 15 
     name upperneck
     direction 0.210059 0.976535 0.0474817   
     length 1.39882   
     axis 0 0 0   XYZ
    dof rx ry rz
    limits (-20.0 45.0)
           (-30.0 30.0)
           (-30.0 30.0)
  end
  begin
     id 16
     name head
     direction 0.0780891 0.996944 -0.00207154  
     length 1.41828  
     axis 0 0 0   XYZ
    dof rx ry rz
    limits (-20.0 45.0)
           (-30.0 30.0)
           (-30.0 30.0)
  end
  begin
     id 17 
     name lclavicle
     direction 0.982414 0.166355 -0.0847829  
     length 3.57922  
     axis 0 0 0   XYZ
    dof ry rz
    limits (-20.0 10.0)
           (0.0 20.0)
  end
  begin
     id 18 
     name lhumerus
     direction 1 -4.48975e-011 5.47647e-028   
     length 4.76405   
     axis -180 -30 -90   XYZ
    dof rx ry rz
    limits (-60.0 90.0)
           (-90.0 90.0)
           (-90.0 90.0)
  end
  begin
     id 19
     name lradius
     direction 1 -4.48949e-011 -8.32142e-027   
     length 3.13759   
     axis -180 -30 -90   XYZ
    dof rx
    limits (-10.0 170.0)
  end
  begin
     id 20
     name lwrist
     direction 1 -4.48978e-011 -1.32705e-026   
     length 1.56879   
     axis 9.60836e-015 90 90   XYZ
    dof ry
    limits (-180.0 0.0)
 end
  begin
     id 21 
     name lhand
     direction 1 -4.48975e-011 -2.65409e-026   
     length 0.732262   
     axis 1.69354e-014 90 90   XYZ
    dof rx rz
    limits (-90.0 90.0)
           (-45.0 45.0)
  end
  begin
     id 22 
     name lfingers
     direction 1 -4.48923e-011 -5.30819e-026   
     length 0.590368   
     axis 3.38708e-014 90 90   XYZ
    dof rx
    limits (0.0 90.0)
  end
  begin
     id 23
     name lthumb
     direction 0.707107 -6.34914e-011 0.707107   
     length 0.847654   
     axis -90 45 2.85299e-015   XYZ
    dof rx rz
    limits (-45.0 45.0)
           (-45.0 45.0)
  end
  begin
     id 24 
     name rclavicle
     direction -0.963658 0.245183 -0.106063   
     length 3.43472  
     axis 0 0 0   XYZ 
    dof ry rz
    limits (-10.0 20.0)
           (-20.0 0.0)
  end
  begin
     id 25 
     name rhumerus
     direction -1 -4.48963e-011 -1.64784e-027  
     length 5.10161   
     axis -180 30 90   XYZ
    dof rx ry rz
    limits (-90.0 60.0)
           (-90.0 90.0)
           (-90.0 90.0)
  end
  begin
     id 26 
     name rradius
     direction -1 -4.48969e-011 -2.87943e-027   
     length 3.23267   
     axis -180 30 90   XYZ
    dof rx
    limits (-10.0 170.0)
  end
  begin
     id 27 
     name rwrist
     direction -1 -4.48982e-011 -1.32705e-026   
     length 1.61633   
     axis 9.60836e-015 -90 -90   XYZ
    dof ry
    limits (-180.0 0.0)
  end
  begin
     id 28
     name rhand
     direction -1 -4.48963e-011 -2.65409e-026   
     length 0.702   
     axis 1.69354e-014 -90 -90   XYZ
    dof rx rz
    limits (-90.0 90.0)
           (-45.0 45.0)
  end
  begin
     id 29
     name rfingers
     direction -1 -4.48934e-011 -5.30819e-026   
     length 0.565971   
     axis 3.38708e-014 -90 -90   XYZ
    dof rx
    limits (0.0 90.0)
  end
  begin
     id 30
     name rthumb
     direction -0.707107 -6.34908e-011 0.707107   
     length 0.812624   
     axis -90 -45 -2.85299e-015   XYZ
    dof rx rz
    limits (-45.0 45.0)
           (-45.0 45.0)
  end
:hierarchy
  begin
    root lhipjoint rhipjoint lowerback
    lhipjoint lfemur
    lfemur ltibia
    ltibia lfoot
    lfoot ltoes
    rhipjoint rfemur
    rfemur rtibia
    rtibia rfoot
    rfoot rtoes
    lowerback upperback
    upperback thorax
    thorax lowerneck lclavicle rclavicle
    lowerneck upperneck
    upperneck head
    lclavicle lhumerus
    lhumerus lradius
    lradius lwrist
    lwrist lhand lthumb
    lhand lfingers
    rclavicle rhumerus
    rhumerus rradius
    rradius rwrist
    rwrist rhand rthumb
    rhand rfingers
  end

#!OML:ASF \\sashay\E\basketball\basketball\Project 1\Capture day 1\Session 1\Subject.ASF
:FULLY-SPECIFIED
:DEGREES
33
root -4.95967 15.5962 0.140781 132.373 79.7572 123.842
lowerback 11.9596 -4.81142 -12.5541
upperback 5.54934 -7.35129 -2.17585
thorax 0.569731 -3.76111 5.41737
lowerneck -6.14839 -4.04141 -14.5067
upperneck -11.8687 -2.68558 22.9678
head -1.65362 -1.08725 9.73889
rclavicle -3.93594e-014 -7.15625e-015
rhumerus -89.967 21.6453 -104.332
rradius 77.0559
rwrist -25.303
rhand -39.8455 47.3486
rfingers 7.12502
rthumb -12.8189 17.7621
lclavicle -3.93594e-014 -7.15625e-015
lhumerus -21.3362 -15.1182 98.651
lradius 114.928
lwrist 9.75612
lhand -43.1044 29.2704
lfingers 7.12502
lthumb -15.9589 58.633
rfemur -61.8984 -5.91884 12.924
rtibia 107.731
rfoot -9.73123 -7.53953
rtoes -34.5658
lfemur 17.839 3.96912 -28.9426
ltibia 16.3358
lfoot 10.154 -6.5197
ltoes -30.4265
34
root -4.23594 15.6782 0.121733 129.653 80.0921 121.145
lowerback 11.2398 -4.9902 -12.4775
upperback 5.51583 -7.49558 -1.97283
thorax 0.967941 -3.86786 5.51978
lowerneck -5.83002 -4.11196 -14.2784
upperneck -11.9239 -2.89526 22.3213
head -1.71589 -1.21926 9.46705
rclavicle -3.97569e-014 -2.38542e-015
rhumerus -91.6426 21.5393 -103.863
rradius 79.7057
rwrist -26.2972
rhand -39.7184 48.6079
rfingers 7.12502
rthumb -12.6963 19.0139
lclavicle -3.97569e-014 -2.38542e-015
lhumerus -22.048 -15.2555 97.7124
lradius 116.525
lwrist 10.465
lhand -44.0201 29.3894
lfingers 7.12502
lthumb -16.8405 58.6792
rfemur -62.5568 -4.08398 12.7648
rtibia 101.878
rfoot -9.47459 -7.90091
rtoes -39.0182
lfemur 22.5988 2.96946 -28.8961
ltibia 10.7906
lfoot 16.7953 -3.40003
ltoes -24.087
35
root -3.50101 15.797 0.0947843 127.444 80.4878 119.069
lowerback 10.4382 -5.14618 -11.6399
upperback 5.70183 -7.5019 -2.16787
thorax 1.45244 -3.88267 4.76995
lowerneck -7.00618 -3.8537 -13.9492
upperneck -10.9161 -2.59919 21.9274
head -1.30978 -0.992697 9.23682
rclavicle -1.39149e-014 4.29375e-014
rhumerus -92.5567 20.6794 -103.505
rradius 81.9904
rwrist -26.5756
rhand -39.4966 49.5278
rfingers 7.12502
rthumb -12.4825 19.9206
lclavicle -1.39149e-014 4.29375e-014
lhumerus -22.7744 -16.2984 96.2301
lradius 117.414
lwrist 9.83335
lhand -44.3568 29.0343
lfingers 7.12502
lthumb -17.1646 58.2961
rfemur -62.6634 -2.49172 12.5234
rtibia 95.5535
rfoot -9.6125 -6.95872
rtoes -37.0089
lfemur 27.859 2.50632 -28.6352
ltibia 4.6799
lfoot 18.0511 -3.82626
ltoes -33.1546
36
root -2.7791 15.8971 0.0650946 124.796 80.8503 116.686
lowerback 10.0015 -5.21493 -10.9799
upperback 5.77525 -7.48431 -2.17244
thorax 1.66695 -3.87455 4.3613
lowerneck -7.73927 -3.48417 -13.6632
upperneck -10.1536 -2.18108 21.2931
head -1.07763 -0.735324 8.95633
rclavicle 1.70955e-014 -2.70347e-014
rhumerus -93.3904 20.0236 -102.795
rradius 84.0906
rwrist -26.5029
rhand -39.1262 50.2398
rfingers 7.12502
rthumb -12.1253 20.6111
lclavicle 1.70955e-014 -2.70347e-014
lhumerus -23.6423 -16.7902 95.0536
lradius 118.387
lwrist 10.3974
lhand -44.192 29.3989
lfingers 7.12502
lthumb -17.006 58.6745
rfemur -62.1104 -1.14789 12.2226
rtibia 88.8803
rfoot -9.71147 -6.2934
rtoes -36.5827
lfemur 32.6513 2.10473 -28.5617
ltibia 5.08889e-014
lfoot 18.8991 -4.4415
ltoes -41.3875
37
root -2.08332 15.9595 0.0378883 122.594 80.9326 114.178
lowerback 9.39227 -5.23912 -10.6771
upperback 5.57817 -7.45833 -1.96588
thorax 1.76854 -3.86799 4.36114
lowerneck -8.10224 -3.39626 -13.5659
upperneck -9.95069 -2.11746 20.4374
head -1.00442 -0.681293 8.64123
rclavicle -4.03533e-014 2.54444e-014
rhumerus -94.212 19.2859 -101.485
rradius 86.6051
rwrist -26.0107
rhand -38.6988 50.0122
rfingers 7.12502
rthumb -11.7132 20.3596
lclavicle -4.03533e-014 2.54444e-014
lhumerus -24.8674 -17.4395 94.63
lradius 118.685
lwrist 10.5775
lhand -45.1034 27.7325
lfingers 7.12502
lthumb -17.8831 56.9302
rfemur -62.0491 -0.297926 11.7643
rtibia 82.1218
rfoot -9.68908 -5.90815
rtoes -37.8059
lfemur 34.5666 1.58227 -28.9385
ltibia -5.725e-014
lfoot 20.0972 0.855
ltoes -34.9206
38
root -1.38296 16.0168 0.00357815 120.101 80.9085 111.57
lowerback 8.98475 -5.18811 -10.2991
upperback 5.41093 -7.34615 -1.88129
thorax 1.75214 -3.8057 4.21242
lowerneck -8.04205 -3.36087 -13.5341
upperneck -9.6253 -2.17539 19.8474
head -0.934717 -0.712919 8.4272
rclavicle 6.57977e-014 2.42517e-014
rhumerus -94.9239 18.2831 -100.138
rradius 89.1387
rwrist -25.1846
rhand -38.4859 49.2632
rfingers 7.12502
rthumb -11.5079 19.5991
lclavicle 6.57977e-014 2.42517e-014
lhumerus -26.4796 -18.0216 94.3799
lradius 118.938
lwrist 10.2454
lhand -45.178 27.0414
lfingers 7.12502
lthumb -17.955 56.2326
rfemur -61.3024 0.299855 11.2704
rtibia 75.1206
rfoot -9.57782 -5.63537
rtoes -39.2603
lfemur 35.3137 1.16073 -29.5686
ltibia 2.65373
lfoot 19.2255 5.31822
ltoes -32.8023
39
root -0.679022 16.081 -0.0283151 117.255 80.7515 108.548
lowerback 8.53517 -5.15561 -10.1718
upperback 5.22031 -7.273 -1.80875
thorax 1.77618 -3.76984 4.18291
lowerneck -7.24211 -3.17124 -13.6505
upperneck -9.94467 -1.9842 19.4892
head -1.20325 -0.662002 8.346
rclavicle -9.78021e-014 1.35174e-014
rhumerus -95.2776 17.4295 -98.9343
rradius 91.0706
rwrist -24.1766
rhand -38.2981 48.9101
rfingers 7.12502
rthumb -11.3268 19.236
lclavicle -9.78021e-014 1.35174e-014
lhumerus -28.4423 -18.2439 94.4322
lradius 118.468
lwrist 9.24924
lhand -44.339 25.7927
lfingers 7.12502
lthumb -17.1475 55.0561
rfemur -60.2098 0.704842 10.7459
rtibia 67.9525
rfoot -9.42074 -5.49518
rtoes -41.0348
lfemur 33.2583 0.795077 -30.3966
ltibia 10.3323
lfoot 16.7689 7.8688
ltoes -33.9048
40
root 0.0269117 16.1507 -0.0532802 114.913 80.4206 105.996
lowerback 8.05352 -5.20351 -10.4019
upperback 5.08946 -7.31624 -1.67597
thorax 1.95943 -3.80994 4.40064
lowerneck -7.1639 -2.85521 -13.5222
upperneck -10.3482 -1.52196 19.1204
head -1.42333 -0.437862 8.22092
rclavicle -6.55989e-015 5.64548e-014
rhumerus -95.2587 16.6616 -97.7664
rradius 92.7583
rwrist -23.1382
rhand -38.0301 49.6894
rfingers 7.12502
rthumb -11.0683 20.0013
lclavicle -6.55989e-015 5.64548e-014
lhumerus -30.5039 -18.0321 94.7294
lradius 117.727
lwrist 8.37283
lhand -43.8288 24.1547
lfingers 7.12502
lthumb -16.6564 53.4601
rfemur -58.7959 0.861237 10.1909
rtibia 60.762
rfoot -9.42722 -5.12493
rtoes -41.84
lfemur 32.2586 1.22139 -30.6784
ltibia 15.6842
lfoot 15.4877 7.96657
ltoes -36.9417
41
root 0.731855 16.223 -0.0709747 113.275 79.8287 104.294
lowerback 7.84732 -5.29166 -10.8964
upperback 4.99301 -7.44869 -1.61769
thorax 2.07126 -3.8938 4.71008
lowerneck -7.87717 -2.54082 -13.2297
upperneck -10.144 -1.06629 18.7162
head -1.33733 -0.174668 8.03744
rclavicle -3.80673e-014 2.34566e-014
rhumerus -95.0276 15.8092 -96.8285
rradius 94.4075
rwrist -22.317
rhand -38.2352 51.2779
rfingers 7.12502
rthumb -11.2661 21.6004
lclavicle -3.80673e-014 2.34566e-014
lhumerus -32.6312 -17.6481 95.0832
lradius 116.662
lwrist 7.64273
lhand -43.8401 23.5353
lfingers 7.12502
lthumb -16.6672 52.8397
rfemur -57.0053 0.922077 9.40974
rtibia 53.7934
rfoot -9.76751 -4.84442
rtoes -42.8247
lfemur 31.4206 1.46446 -31.1445
ltibia 20.8638
lfoot 14.4913 7.78099
ltoes -33.7545
42
root 1.42727 16.294 -0.0929653 111.797 78.9096 102.949
lowerback 8.03815 -5.37577 -11.5542
upperback 4.91419 -7.62343 -1.7383
thorax 1.99168 -3.98474 4.96332
lowerneck -7.86577 -2.26828 -13.3821
upperneck -9.97319 -0.724836 18.4791
head -1.35283 0.00113884 7.99123
rclavicle 7.99114e-014 2.66371e-014
rhumerus -94.4298 14.9045 -96.2093
rradius 95.767
rwrist -21.7447
rhand -38.9239 52.3928
rfingers 7.12502
rthumb -11.9303 22.7527
lclavicle 7.99114e-014 2.66371e-014
lhumerus -34.835 -17.0189 95.4895
lradius 114.928
lwrist 7.24905
lhand -43.8679 24.6617
lfingers 7.12502
lthumb -16.6941 53.9638
rfemur -54.9385 0.720241 8.42599
rtibia 47.3576
rfoot -9.90035 -4.41734
rtoes -44.5353
lfemur 30.5595 1.74133 -31.8907
ltibia 26.1039
lfoot 15.1438 7.37637
ltoes -27.3859
43
root 2.12681 16.3493 -0.116655 110.296 78.172 101.859
lowerback 8.29656 -5.39673 -12.0339
upperback 5.0406 -7.68993 -1.87041
thorax 2.05016 -4.02813 5.10045
lowerneck -8.21442 -2.47122 -13.3838
upperneck -9.80473 -0.976009 18.6598
head -1.20035 -0.106334 8.04202
rclavicle -3.3694e-014 5.36719e-015
rhumerus -93.2674 13.9233 -95.7103
rradius 96.8512
rwrist -21.2991
rhand -39.4991 52.7737
rfingers 7.12502
rthumb -12.4849 23.1666
lclavicle -3.3694e-014 5.36719e-015
lhumerus -37.1944 -16.1185 96.0857
lradius 113.075
lwrist 7.41359
lhand -43.7246 25.0406
lfingers 7.12502
lthumb -16.5561 54.3543
rfemur -52.6129 0.336083 7.9168
rtibia 41.7358
rfoot -9.6799 -3.74406
rtoes -45.8309
lfemur 29.6934 2.17084 -32.4084
ltibia 31.7586
lfoot 11.7647 6.94512
ltoes -34.2138
44
root 2.84249 16.3771 -0.132829 107.712 78.084 99.9985
lowerback 8.46996 -5.2476 -12.1674
upperback 5.3742 -7.4817 -1.82892
thorax 2.30228 -3.94997 5.20647
lowerneck -8.55407 -2.59752 -13.4482
upperneck -9.95367 -1.06937 18.8089
head -1.1661 -0.132822 8.10296
rclavicle 7.12643e-014 3.77691e-015
rhumerus -91.7158 13.0409 -95.2839
rradius 97.8214
rwrist -20.988
rhand -39.7825 52.9849
rfingers 7.12502
rthumb -12.7581 23.3947
lclavicle 7.12643e-014 3.77691e-015
lhumerus -39.4503 -15.0059 96.7528
lradius 110.935
lwrist 8.27327
lhand -43.0959 25.7781
lfingers 7.12502
lthumb -15.9507 55.1413
rfemur -50.0702 0.314184 8.23455
rtibia 37.0812
rfoot -8.8503 -2.8958
rtoes -45.19
lfemur 29.0638 3.07776 -32.1783
ltibia 37.7789
lfoot 11.7577 6.9601
ltoes -29.3816
45
root 3.53532 16.3934 -0.13799 107.376 78.0849 100.003
lowerback 8.57959 -5.18023 -12.2547
upperback 5.56187 -7.39499 -1.57583
thorax 2.47736 -3.93217 5.51362
lowerneck -8.92721 -2.77025 -13.4569
upperneck -10.4567 -1.17926 18.8211
head -1.22904 -0.166728 8.11344
rclavicle -1.00138e-013 4.32357e-014
rhumerus -89.8457 12.3667 -94.9291
rradius 98.5451
rwrist -20.7609
rhand -39.8909 53.521
rfingers 7.12502
rthumb -12.8626 23.9373
lclavicle -1.00138e-013 4.32357e-014
lhumerus -41.4039 -14.0556 97.6603
lradius 108.326
lwrist 10.7845
lhand -42.762 25.9899
lfingers 7.12502
lthumb -15.6292 55.3786
rfemur -48.0395 -0.0881969 8.86102
rtibia 33.5327
rfoot -7.69495 -1.63432
rtoes -43.212
lfemur 27.6457 3.84574 -31.4186
ltibia 44.2591
lfoot 9.70593 7.20135
ltoes -31.0828
46
root 4.22265 16.3962 -0.149246 106.911 78.2418 99.8601
lowerback 8.59725 -5.04216 -12.0839
upperback 5.8438 -7.17529 -1.33951
thorax 2.73835 -3.8475 5.64893
lowerneck -9.6739 -2.54577 -13.4801
upperneck -10.3185 -0.806949 18.4842
head -1.13904 0.065801 8.01304
rclavicle -1.05468e-013 3.70236e-015
rhumerus -87.5498 11.5906 -94.6825
rradius 99.0225
rwrist -20.4152
rhand -40.0614 53.9098
rfingers 7.12502
rthumb -13.0269 24.3366
lclavicle -1.05468e-013 3.70236e-015
lhumerus -43.029 -13.0342 98.3985
lradius 105.321
lwrist 13.5155
lhand -42.0844 25.9815
lfingers 7.12502
lthumb -14.9765 55.4199
rfemur -46.3129 -0.847114 9.85819
rtibia 31.0342
rfoot -5.99852 -0.499025
rtoes -37.9346
lfemur 25.9553 4.73219 -30.4952
ltibia 50.9981
lfoot 9.25498 8.13329
ltoes -27.5884
